<?xml version="1.0" standalone="no"?>
<!DOCTYPE svg PUBLIC "-//W3C//DTD SVG 20010904//EN"
 "http://www.w3.org/TR/2001/REC-SVG-20010904/DTD/svg10.dtd">
<svg version="1.0" xmlns="http://www.w3.org/2000/svg"
 width="920.000000pt" height="938.000000pt" viewBox="0 0 920.000000 938.000000"
 preserveAspectRatio="xMidYMid meet">
<metadata>
Created by potrace 1.16, written by Peter Selinger 2001-2019
</metadata>
<g transform="translate(0.000000,938.000000) scale(0.100000,-0.100000)"
fill="#000000" stroke="none">
<path d="M4708 8956 c-81 -24 -222 -124 -274 -196 -43 -61 -67 -159 -62 -258
4 -77 9 -95 41 -156 20 -38 34 -72 31 -77 -11 -19 84 -142 128 -165 38 -20 45
-12 60 58 l12 55 -36 44 c-64 79 -74 123 -38 159 28 28 64 25 100 -7 26 -23
34 -43 50 -118 10 -49 25 -110 33 -135 l15 -45 1 116 c1 114 1 116 26 127 38
17 38 17 9 -39 l-26 -52 43 7 c24 4 62 15 86 26 43 19 43 19 33 0 -12 -23 -9
-22 94 24 33 14 61 24 64 22 2 -3 -5 -21 -16 -41 -12 -19 -18 -35 -13 -35 22
0 109 70 154 124 l50 61 -7 -44 c-6 -39 -5 -42 8 -32 9 7 29 40 46 74 54 109
35 250 -46 346 -44 51 -83 71 -233 123 -133 46 -250 58 -333 34z"/>
<path d="M4248 8243 c-37 -38 -78 -91 -93 -120 -30 -60 -60 -171 -70 -260 l-7
-63 34 6 c31 6 122 38 281 98 37 14 85 26 105 26 28 0 33 3 22 10 -8 5 -48 10
-87 10 l-73 0 0 93 c1 81 7 115 34 178 5 10 -1 19 -18 28 -13 7 -30 24 -37 37
-7 13 -15 24 -18 24 -4 0 -37 -30 -73 -67z"/>
<path d="M7825 8001 c-70 -18 -139 -70 -169 -129 -8 -15 -21 -52 -29 -82 -8
-30 -94 -332 -192 -670 -97 -338 -191 -664 -209 -725 -31 -109 -31 -109 -66
-117 -19 -4 -122 -25 -227 -48 -106 -22 -278 -58 -383 -80 -104 -22 -275 -58
-380 -80 -104 -22 -274 -58 -377 -79 -104 -22 -213 -45 -243 -52 -76 -16 -110
-52 -110 -114 0 -38 5 -52 29 -76 39 -39 64 -38 293 11 104 22 274 58 378 80
105 22 276 58 380 80 105 22 274 58 378 80 226 48 224 48 220 13 -3 -25 0 -27
87 -48 50 -12 102 -25 118 -28 l27 -7 0 79 c0 44 3 82 8 84 4 3 75 19 157 37
83 17 236 49 340 71 105 22 244 51 310 65 66 13 125 26 131 28 8 3 5 35 -11
105 -12 56 -24 103 -26 105 -2 2 -33 -2 -69 -9 -153 -31 -220 -45 -307 -64
-51 -12 -96 -21 -99 -21 -12 0 3 56 185 685 158 547 181 636 176 677 -16 132
-104 221 -230 232 -33 3 -73 1 -90 -3z"/>
<path d="M4816 7602 c-4 -12 -19 -36 -33 -53 -23 -27 -27 -41 -29 -109 -4
-151 -54 -251 -149 -299 -68 -36 -196 -37 -304 -3 -97 31 -170 99 -197 185
-17 54 -19 57 -50 57 -22 0 -37 -6 -43 -17 -5 -10 -14 -79 -21 -153 -14 -166
-29 -315 -37 -357 -5 -28 -1 -35 43 -67 64 -47 369 -200 508 -254 60 -24 109
-42 111 -40 1 2 16 24 33 49 23 34 49 56 94 79 89 46 180 112 213 155 86 114
70 275 -61 597 -24 59 -44 117 -45 130 0 13 -6 46 -13 73 -10 43 -13 47 -20
27z"/>
<path d="M3512 5925 c-110 -163 -135 -321 -81 -517 11 -38 33 -96 49 -128 l30
-59 -34 -113 c-63 -207 -166 -604 -166 -635 0 -14 106 -92 182 -133 79 -42
270 -110 310 -110 31 0 39 11 188 275 62 110 117 204 121 209 4 4 123 -61 266
-146 319 -191 366 -218 386 -218 26 0 172 116 245 196 75 81 183 226 186 248
1 15 -99 138 -359 440 -268 310 -301 353 -348 445 -37 75 -42 91 -40 148 1 35
-3 63 -8 63 -44 0 -395 43 -662 81 -114 16 -209 29 -211 29 -2 0 -26 -34 -54
-75z"/>
<path d="M1622 4218 c-52 -130 -102 -445 -102 -635 0 -105 20 -205 47 -235 41
-46 79 -6 179 184 37 72 83 155 101 186 18 30 33 57 33 61 0 3 -16 17 -35 30
-52 35 -102 95 -113 134 -11 39 -1 111 22 154 8 16 32 49 55 75 23 25 41 48
41 51 0 3 -39 7 -87 10 -49 2 -97 7 -108 11 -16 6 -23 1 -33 -26z"/>
<path d="M7815 2965 c-546 -96 -656 -117 -810 -154 -88 -22 -214 -58 -280 -80
-66 -23 -124 -41 -129 -41 -5 0 4 10 20 22 49 38 64 61 61 93 -4 49 -15 52
-417 100 -74 9 -147 19 -161 22 -24 5 -27 0 -49 -64 -43 -128 -65 -159 -135
-189 -59 -24 -147 -21 -231 10 -39 14 -74 26 -77 26 -8 0 22 -99 41 -135 9
-16 16 -48 16 -70 l1 -40 45 -3 c102 -8 478 67 624 124 62 24 52 9 -21 -31
-92 -52 -255 -163 -328 -224 l-59 -51 -2523 0 c-2520 0 -2522 0 -2577 -21 -73
-27 -148 -96 -183 -167 -27 -54 -28 -64 -28 -197 0 -126 2 -145 24 -192 26
-60 109 -143 167 -169 30 -14 78 -19 204 -23 l165 -6 3 -72 c3 -71 2 -73 -21
-73 -31 0 -37 -15 -37 -100 0 -58 3 -71 19 -80 12 -6 93 -10 194 -10 138 0
177 3 186 14 8 9 11 43 9 92 -3 74 -4 78 -28 84 -24 6 -25 9 -25 75 l0 70
2915 0 2915 0 3 -72 c3 -65 1 -73 -16 -73 -33 0 -42 -21 -42 -97 0 -61 3 -74
19 -83 12 -6 93 -10 194 -10 138 0 177 3 186 14 8 9 11 43 9 92 -3 74 -4 78
-28 84 -24 6 -25 9 -25 75 l0 70 491 3 491 2 8 508 c8 568 5 605 -51 719 -77
159 -226 258 -403 268 -59 3 -132 -6 -326 -40z"/>
</g>
</svg>
